<?xml version="1.0" encoding="UTF-8"?>
<svg xmlns="http://www.w3.org/2000/svg" version="1.1" width="1024" height="1024" viewBox="0 0 500 500"><rect x="0" y="0" width="500" height="500" fill="#ffffff"/><g transform="scale(16.129)"><g transform="translate(1,1)"><g><g transform="translate(3.5,3.5)"><path fill-rule="evenodd" d="M-3.5 -3.5L3.5 -3.5L3.5 3.5L-3.5 3.5ZM-2.5 -2.5L-2.5 2.5L2.5 2.5L2.5 -2.5Z" fill="#000000"/><path fill-rule="evenodd" d="M-1.5 -1.5L1.5 -1.5L1.5 1.5L-1.5 1.5Z" fill="#000000"/></g></g><g><g transform="translate(25.5,3.5)"><g transform="rotate(90)"><path fill-rule="evenodd" d="M-3.5 -3.5L3.5 -3.5L3.5 3.5L-3.5 3.5ZM-2.5 -2.5L-2.5 2.5L2.5 2.5L2.5 -2.5Z" fill="#000000"/><path fill-rule="evenodd" d="M-1.5 -1.5L1.5 -1.5L1.5 1.5L-1.5 1.5Z" fill="#000000"/></g></g></g><g><g transform="translate(3.5,25.5)"><g transform="rotate(-90)"><path fill-rule="evenodd" d="M-3.5 -3.5L3.5 -3.5L3.5 3.5L-3.5 3.5ZM-2.5 -2.5L-2.5 2.5L2.5 2.5L2.5 -2.5Z" fill="#000000"/><path fill-rule="evenodd" d="M-1.5 -1.5L1.5 -1.5L1.5 1.5L-1.5 1.5Z" fill="#000000"/></g></g></g><path fill-rule="evenodd" d="M11 0L11 2L13 2L13 3L14 3L14 4L16 4L16 0L15 0L15 1L14 1L14 0L13 0L13 1L12 1L12 0ZM19 0L19 1L17 1L17 2L19 2L19 3L20 3L20 5L21 5L21 3L20 3L20 1L21 1L21 0ZM9 1L9 2L8 2L8 8L9 8L9 10L5 10L5 9L7 9L7 8L2 8L2 10L5 10L5 11L3 11L3 12L1 12L1 13L0 13L0 21L1 21L1 18L2 18L2 17L3 17L3 18L4 18L4 20L2 20L2 21L4 21L4 20L5 20L5 18L6 18L6 19L7 19L7 20L6 20L6 21L8 21L8 22L9 22L9 21L8 21L8 19L10 19L10 18L11 18L11 21L10 21L10 23L11 23L11 24L9 24L9 23L8 23L8 27L10 27L10 29L11 29L11 27L12 27L12 26L13 26L13 22L11 22L11 21L12 21L12 20L14 20L14 21L15 21L15 23L14 23L14 24L15 24L15 25L14 25L14 27L13 27L13 29L14 29L14 27L16 27L16 28L15 28L15 29L16 29L16 28L18 28L18 29L20 29L20 28L18 28L18 27L19 27L19 26L17 26L17 25L20 25L20 26L21 26L21 25L23 25L23 27L24 27L24 25L25 25L25 23L26 23L26 25L29 25L29 23L27 23L27 22L28 22L28 20L29 20L29 19L28 19L28 18L29 18L29 17L27 17L27 18L26 18L26 17L24 17L24 16L25 16L25 15L27 15L27 16L29 16L29 14L28 14L28 13L27 13L27 14L26 14L26 13L24 13L24 12L26 12L26 11L27 11L27 10L28 10L28 9L27 9L27 8L22 8L22 9L24 9L24 10L25 10L25 11L19 11L19 10L21 10L21 6L20 6L20 7L19 7L19 4L18 4L18 3L17 3L17 4L18 4L18 5L17 5L17 6L16 6L16 5L15 5L15 6L14 6L14 8L15 8L15 9L12 9L12 8L13 8L13 6L12 6L12 5L11 5L11 4L12 4L12 3L10 3L10 1ZM14 2L14 3L15 3L15 2ZM9 3L9 8L10 8L10 9L11 9L11 8L12 8L12 6L11 6L11 8L10 8L10 3ZM15 6L15 8L16 8L16 9L17 9L17 10L18 10L18 8L19 8L19 9L20 9L20 8L19 8L19 7L18 7L18 6L17 6L17 7L18 7L18 8L16 8L16 6ZM0 8L0 11L1 11L1 8ZM26 9L26 10L27 10L27 9ZM9 10L9 11L8 11L8 12L9 12L9 11L10 11L10 12L13 12L13 15L11 15L11 13L9 13L9 15L10 15L10 17L9 17L9 16L8 16L8 15L5 15L5 16L8 16L8 17L6 17L6 18L7 18L7 19L8 19L8 17L9 17L9 18L10 18L10 17L12 17L12 18L13 18L13 17L15 17L15 16L16 16L16 18L18 18L18 19L14 19L14 20L16 20L16 22L18 22L18 23L15 23L15 24L16 24L16 25L17 25L17 24L18 24L18 23L19 23L19 22L20 22L20 20L19 20L19 21L17 21L17 20L18 20L18 19L20 19L20 18L21 18L21 19L23 19L23 18L24 18L24 19L25 19L25 20L27 20L27 19L25 19L25 18L24 18L24 17L23 17L23 18L21 18L21 17L22 17L22 16L18 16L18 15L25 15L25 14L24 14L24 13L23 13L23 14L21 14L21 13L22 13L22 12L21 12L21 13L20 13L20 12L19 12L19 11L14 11L14 12L13 12L13 11L12 11L12 10ZM5 11L5 13L4 13L4 14L2 14L2 13L1 13L1 14L2 14L2 16L4 16L4 14L8 14L8 13L6 13L6 12L7 12L7 11ZM28 11L28 12L29 12L29 11ZM14 12L14 13L15 13L15 15L14 15L14 16L15 16L15 15L18 15L18 14L17 14L17 13L19 13L19 12ZM12 16L12 17L13 17L13 16ZM17 16L17 17L18 17L18 18L19 18L19 17L18 17L18 16ZM21 21L21 24L24 24L24 21ZM25 21L25 22L27 22L27 21ZM22 22L22 23L23 23L23 22ZM10 25L10 27L11 27L11 25ZM16 26L16 27L17 27L17 26ZM26 26L26 27L25 27L25 28L24 28L24 29L27 29L27 27L28 27L28 28L29 28L29 27L28 27L28 26ZM8 28L8 29L9 29L9 28ZM21 28L21 29L23 29L23 28Z" fill="#000000"/></g></g></svg>
